<?xml version="1.0" standalone="no"?>
<!DOCTYPE svg PUBLIC "-//W3C//DTD SVG 20010904//EN"
 "http://www.w3.org/TR/2001/REC-SVG-20010904/DTD/svg10.dtd">
<svg version="1.0" xmlns="http://www.w3.org/2000/svg"
 width="1254.000000pt" height="1254.000000pt" viewBox="0 0 1254.000000 1254.000000"
 preserveAspectRatio="xMidYMid meet">

<g transform="translate(0.000000,1254.000000) scale(0.100000,-0.100000)"
fill="currentColor" stroke="none">

<path d="M6040 10934 c-19 -2 -89 -8 -155 -14 -264 -24 -509 -68 -743 -135
-544 -153 -1089 -427 -1502 -754 -574 -455 -1009 -994 -1310 -1624 -226 -475
-356 -905 -425 -1412 -39 -287 -48 -459 -42 -755 8 -390 51 -695 158 -1125
132 -527 420 -1127 764 -1590 551 -741 1308 -1294 2150 -1568 287 -94 534
-152 764 -182 452 -59 818 -55 1216 10 478 79 840 197 1270 412 160 80 207
107 380 214 382 237 803 624 1121 1029 447 569 754 1250 903 2000 101 508 114
1087 36 1615 -58 386 -189 836 -351 1202 -191 432 -455 848 -750 1183 -102
116 -338 350 -454 451 -493 427 -1089 741 -1738 914 -179 48 -454 98 -642 116
-114 11 -582 20 -650 13z m-1000 -1389 c314 -50 600 -185 872 -413 97 -82 258
-251 317 -334 19 -27 37 -48 41 -48 4 0 38 39 76 88 181 229 424 428 682 556
129 65 248 106 413 142 112 25 144 27 334 28 l210 1 145 -37 c240 -62 394
-132 574 -260 201 -142 405 -357 554 -583 131 -198 266 -502 336 -754 118
-424 126 -1037 16 -1318 -60 -155 -152 -272 -267 -339 -155 -91 -409 -82 -613
21 -76 38 -192 138 -239 204 -105 151 -161 323 -182 563 -37 437 -55 551 -115
748 -105 340 -311 531 -531 491 -178 -33 -311 -169 -403 -414 -51 -137 -72
-220 -120 -488 -52 -288 -81 -393 -135 -504 -60 -121 -131 -212 -222 -285
-146 -118 -284 -169 -478 -177 -106 -4 -132 -2 -220 21 -334 86 -549 323 -659
728 -14 51 -43 183 -65 294 -78 386 -176 606 -324 727 -75 61 -129 81 -227 81
-100 0 -154 -20 -230 -84 -189 -159 -291 -489 -340 -1108 -24 -298 -72 -449
-198 -614 -75 -99 -222 -198 -362 -244 -73 -24 -102 -28 -205 -28 -100 -1
-131 3 -186 22 -220 76 -358 269 -416 582 -25 135 -24 594 1 760 83 544 281
994 599 1366 313 366 694 574 1142 624 107 12 296 5 425 -15z m-1285 -3520
c33 -8 103 -36 155 -61 79 -39 109 -61 175 -128 160 -161 234 -382 235 -694 3
-661 117 -1030 362 -1163 60 -32 68 -34 163 -34 89 1 105 4 150 28 104 56 184
158 245 313 63 161 93 310 135 674 30 259 73 425 146 568 86 165 223 303 381
380 130 64 229 87 368 86 161 -2 324 -51 446 -134 211 -146 349 -371 404 -660
6 -30 26 -171 46 -313 38 -287 45 -323 81 -451 53 -186 118 -310 208 -395 82
-77 129 -96 245 -96 84 0 102 3 152 28 97 48 177 148 249 312 65 147 97 352
109 700 12 313 27 442 64 560 59 185 187 335 358 419 126 62 199 80 333 80
128 1 193 -13 292 -62 133 -65 227 -162 300 -306 104 -207 128 -574 62 -974
-92 -561 -339 -1079 -691 -1447 -344 -360 -757 -554 -1238 -580 -273 -15 -593
58 -820 188 -187 107 -421 313 -550 485 l-55 73 -20 -24 c-11 -14 -51 -64 -90
-112 -227 -283 -591 -513 -920 -580 -263 -54 -590 -34 -850 51 -111 37 -275
109 -343 153 -31 20 -70 43 -85 51 -46 23 -230 175 -314 258 -336 333 -597
845 -702 1377 -73 370 -78 686 -16 932 68 267 257 457 505 507 89 18 236 14
325 -9z"/>
</g>
</svg>
